<?xml version="1.0" encoding="UTF-8" standalone="no"?>
<!-- Created with Inkscape (http://www.inkscape.org/) -->

<svg
   width="210mm"
   height="50mm"
   viewBox="0 0 210 50"
   version="1.1"
   id="svg5"
   inkscape:version="1.2.2 (b0a84865, 2022-12-01)"
   sodipodi:docname="ecologicalnetworksdynamics-dark.svg"
   xmlns:inkscape="http://www.inkscape.org/namespaces/inkscape"
   xmlns:sodipodi="http://sodipodi.sourceforge.net/DTD/sodipodi-0.dtd"
   xmlns="http://www.w3.org/2000/svg"
   xmlns:svg="http://www.w3.org/2000/svg">
  <sodipodi:namedview
     id="namedview7"
     pagecolor="#ffffff"
     bordercolor="#999999"
     borderopacity="1"
     inkscape:showpageshadow="0"
     inkscape:pageopacity="0"
     inkscape:pagecheckerboard="0"
     inkscape:deskcolor="#d1d1d1"
     inkscape:document-units="mm"
     showgrid="false"
     inkscape:zoom="4.6008849"
     inkscape:cx="109.00077"
     inkscape:cy="80.419313"
     inkscape:window-width="1508"
     inkscape:window-height="912"
     inkscape:window-x="2"
     inkscape:window-y="40"
     inkscape:window-maximized="0"
     inkscape:current-layer="layer1" />
  <defs
     id="defs2">
    <marker
       style="overflow:visible"
       id="Arrow1"
       refX="0"
       refY="0"
       orient="auto-start-reverse"
       inkscape:stockid="Arrow1"
       markerWidth="4.0606599"
       markerHeight="6.7071061"
       viewBox="0 0 4.0606602 6.7071068"
       inkscape:isstock="true"
       inkscape:collect="always"
       preserveAspectRatio="xMidYMid">
      <path
         style="fill:none;stroke:context-stroke;stroke-width:1;stroke-linecap:butt"
         d="M 3,-3 0,0 3,3"
         id="path5057"
         transform="rotate(180,0.125,0)"
         sodipodi:nodetypes="ccc" />
    </marker>
    <pattern
       patternUnits="userSpaceOnUse"
       width="598.54665"
       height="44.911775"
       patternTransform="translate(191.72234,75.905925)"
       id="pattern406">
      <text
         xml:space="preserve"
         style="font-style:normal;font-variant:normal;font-weight:normal;font-stretch:normal;font-size:11.2889px;line-height:normal;font-family:Georgia;-inkscape-font-specification:Georgia;text-align:justify;text-decoration-color:#000000;white-space:pre;inline-size:175.725;display:inline;fill:#fefefe;fill-opacity:1;stroke:none;stroke-width:0.7;stroke-linejoin:bevel;stroke-opacity:1;stop-color:#000000"
         x="111.34816"
         y="76.977928"
         id="text1734"
         transform="matrix(4.0678949,0,0,4.0678949,-457.26724,-278.23736)"><tspan
           x="111.34816"
           y="76.977928"
           id="tspan5621"><tspan
             style="font-family:'Kohinoor Bangla';-inkscape-font-specification:'Kohinoor Bangla'"
             id="tspan5619">EcologicalNetworksDynamics</tspan></tspan></text>
    </pattern>
    <rect
       x="95.031876"
       y="245.64844"
       width="775.49597"
       height="94.135345"
       id="rect306" />
  </defs>
  <g
     inkscape:label="Layer 1"
     inkscape:groupmode="layer"
     id="layer1">
    <path
       style="fill:#008000;stroke:none;stroke-width:0.308586;stroke-linejoin:bevel;stroke-opacity:1;stop-color:#000000"
       id="path234"
       sodipodi:type="arc"
       sodipodi:cx="21.510204"
       sodipodi:cy="14.767377"
       sodipodi:rx="10.568309"
       sodipodi:ry="10.865669"
       sodipodi:start="0"
       sodipodi:end="6.2827328"
       sodipodi:arc-type="slice"
       d="M 32.078513,14.767377 A 10.568309,10.865669 0 0 1 21.5114,25.633046 10.568309,10.865669 0 0 1 10.941896,14.769835 10.568309,10.865669 0 0 1 21.506618,3.9017083 10.568309,10.865669 0 0 1 32.078512,14.76246 l -10.568308,0.0049 z" />
    <path
       style="fill:#800080;stroke:none;stroke-width:0.354473;stroke-linejoin:bevel;stroke-opacity:1;stop-color:#000000"
       id="path950"
       sodipodi:type="arc"
       sodipodi:cx="33.285362"
       sodipodi:cy="34.831615"
       sodipodi:rx="12.309403"
       sodipodi:ry="12.309402"
       sodipodi:start="0"
       sodipodi:end="6.2827328"
       sodipodi:arc-type="slice"
       d="M 45.594766,34.831615 A 12.309403,12.309402 0 0 1 33.286755,47.141018 12.309403,12.309402 0 0 1 20.975959,34.8344 12.309403,12.309402 0 0 1 33.281185,22.522214 12.309403,12.309402 0 0 1 45.594764,34.826045 l -12.309402,0.0056 z" />
    <path
       style="fill:#aa0000;stroke:none;stroke-width:0.258261;stroke-linejoin:bevel;stroke-opacity:1;stop-color:#000000"
       id="path952"
       sodipodi:type="arc"
       sodipodi:cx="10.105848"
       sodipodi:cy="31.873325"
       sodipodi:rx="8.9683361"
       sodipodi:ry="8.9683352"
       sodipodi:start="0"
       sodipodi:end="6.2827328"
       sodipodi:arc-type="slice"
       d="m 19.074184,31.873325 a 8.9683361,8.9683352 0 0 1 -8.967321,8.968335 8.9683361,8.9683352 0 0 1 -8.9693506,-8.966306 8.9683361,8.9683352 0 0 1 8.9652926,-8.970363 8.9683361,8.9683352 0 0 1 8.971378,8.964276 l -8.968335,0.0041 z" />
    <path
       style="fill:none;stroke:#fcfcfc;stroke-width:1.85689;stroke-linejoin:bevel;stroke-dasharray:none;stroke-opacity:1;marker-end:url(#Arrow1);stop-color:#000000"
       d="M 22.811225,9.9583479 C 62.592597,-6.5373689 35.822933,32.763367 35.822933,32.763367"
       id="path1949"
       sodipodi:nodetypes="cc" />
    <path
       style="fill:none;stroke:#fcfcfc;stroke-width:1.25364;stroke-linejoin:bevel;stroke-dasharray:none;stroke-opacity:1;marker-end:url(#Arrow1);stop-color:#000000"
       d="M 20.455178,16.587586 C 3.0800201,12.702077 9.4394518,32.541695 9.4394518,32.541695"
       id="path2935"
       sodipodi:nodetypes="cc" />
    <path
       style="fill:#008000;stroke:none;stroke-width:0.308586;stroke-linejoin:bevel;stroke-opacity:1;stop-color:#000000"
       id="path2941"
       sodipodi:type="arc"
       sodipodi:cx="21.510204"
       sodipodi:cy="14.782984"
       sodipodi:rx="10.568309"
       sodipodi:ry="10.865669"
       sodipodi:start="0"
       sodipodi:end="6.2827328"
       sodipodi:arc-type="slice"
       d="M 32.078513,14.782984 A 10.568309,10.865669 0 0 1 21.5114,25.648653 10.568309,10.865669 0 0 1 10.941896,14.785442 10.568309,10.865669 0 0 1 21.506618,3.9173152 10.568309,10.865669 0 0 1 32.078512,14.778067 l -10.568308,0.0049 z" />
    <g
       aria-label="EcologicalNetworksDynamics"
       transform="matrix(0.26458333,0,0,0.26458333,25.656869,-47.061067)"
       id="text304"
       style="font-size:42.6667px;font-family:mononoki;-inkscape-font-specification:mononoki;text-align:justify;letter-spacing:-1px;word-spacing:0px;white-space:pre;shape-inside:url(#rect306);display:inline;opacity:0.9;fill:#fefefe;stroke:#fcfcfc;stroke-width:0;stroke-linejoin:bevel;stop-color:#000000">
      <path
         d="m 115.4896,279.77346 h -13.37501 v -10.375 h 11.58334 c 0.66667,0 1.04167,-0.37501 1.04167,-1.04167 v -1.125 c 0,-0.66667 -0.375,-1.04167 -1.04167,-1.04167 h -11.58334 v -9.20834 h 12.45834 c 0.66667,0 1.04167,-0.33333 1.04167,-1.04167 v -1.08333 c 0,-0.70834 -0.375,-1.04167 -1.04167,-1.04167 H 99.614587 c -0.666667,0 -1.041668,0.375 -1.041668,1.04167 v 27.08335 c 0,0.66667 0.375001,1.04167 1.041668,1.04167 H 115.4896 c 0.66667,0 1.04167,-0.375 1.04167,-1.04167 v -1.125 c 0,-0.66667 -0.375,-1.04167 -1.04167,-1.04167 z"
         style="fill:#ffffff"
         id="path3980" />
      <path
         d="m 138.03128,265.35679 0.41667,-1.00001 c 0.25,-0.625 0.0833,-1.125 -0.54167,-1.375 -1.95833,-0.83333 -4.125,-1.25 -6.25,-1.25 -5.25001,0 -10.12501,2.91667 -10.12501,10.83334 0,7.91668 4.875,10.83335 10.12501,10.83335 2.125,0 4.29167,-0.41667 6.25,-1.25001 0.625,-0.25 0.79167,-0.75 0.54167,-1.375 l -0.41667,-1 c -0.25,-0.625 -0.70833,-0.83333 -1.33333,-0.58333 -1.875,0.66667 -3.33334,0.95833 -5.04167,0.95833 -3.70834,0 -6.54167,-1.91666 -6.54167,-7.58334 0,-5.66667 2.83333,-7.58333 6.54167,-7.58333 1.70833,0 3.20833,0.29166 5.04167,0.95833 0.625,0.25 1.08333,0.0417 1.33333,-0.58333 z"
         style="fill:#ffffff"
         id="path3982" />
      <path
         d="m 153.07296,261.64845 c -4.58334,0 -8.58334,3.41667 -8.58334,10.91667 0,7.50001 4,10.91668 8.58334,10.91668 4.58334,0 8.29167,-3.41667 8.29167,-10.91668 0,-7.5 -3.70833,-10.91667 -8.29167,-10.91667 z m -5.04167,10.91667 c 0,-4.91667 2,-7.70833 4.91667,-7.70833 2.91667,0 4.875,2.79166 4.875,7.70833 0,4.91667 -1.95833,7.70834 -4.875,7.70834 -2.91667,0 -4.91667,-2.79167 -4.91667,-7.70834 z"
         style="fill:#ffffff"
         id="path3984" />
      <path
         d="m 184.48965,281.69013 -0.33333,-1.08333 c -0.25,-0.625 -0.66667,-0.83334 -1.33334,-0.70834 -1.04166,0.25 -2.04166,0.29167 -2.70833,0.29167 -2.5,-0.0417 -3.29167,-1 -3.29167,-3.45834 v -23.95835 c 0,-0.70833 -0.375,-1.04166 -1.04167,-1.04166 h -7.16667 c -0.66667,0 -1.04167,0.33333 -1.04167,1.04166 v 1.08334 c 0,0.66666 0.375,1.04166 1.04167,1.04166 h 4.66667 v 21.83335 c 0,4.58334 2.08334,6.66668 6.83334,6.66668 0.83333,0 2.125,-0.0417 3.66667,-0.41667 0.70833,-0.16667 0.95833,-0.66667 0.70833,-1.29167 z"
         style="fill:#ffffff"
         id="path3986" />
      <path
         d="m 198.98966,261.64845 c -4.58333,0 -8.58334,3.41667 -8.58334,10.91667 0,7.50001 4.00001,10.91668 8.58334,10.91668 4.58334,0 8.29168,-3.41667 8.29168,-10.91668 0,-7.5 -3.70834,-10.91667 -8.29168,-10.91667 z m -5.04167,10.91667 c 0,-4.91667 2,-7.70833 4.91667,-7.70833 2.91667,0 4.87501,2.79166 4.87501,7.70833 0,4.91667 -1.95834,7.70834 -4.87501,7.70834 -2.91667,0 -4.91667,-2.79167 -4.91667,-7.70834 z"
         style="fill:#ffffff"
         id="path3988" />
      <path
         d="m 223.15635,280.44013 c -4.5,0 -6.16667,-0.5 -6.16667,-1.95833 0,-0.83334 0.58333,-1.75001 1.75,-2.29167 0.95833,0.29166 2,0.45833 3.08333,0.45833 5.00001,0 8.37501,-3.20834 8.37501,-7.45834 0,-1.625 -0.5,-3.08333 -1.375,-4.29167 h 2.25 c 0.66667,0 1.04167,-0.375 1.04167,-1.04167 v -0.66666 c 0,-0.70834 -0.375,-1.04167 -1.04167,-1.04167 h -6.29167 c -0.91667,-0.25 -1.875,-0.41667 -2.95834,-0.41667 -5,0 -8.41667,3.20834 -8.375,7.45834 -0.0417,2.41667 1.125,4.50001 3,5.83334 -1.70833,0.75 -3,2.5 -3,4.25 0,1.5 0.54167,2.54167 1.83333,3.25 -1.95833,1.04167 -3.33333,3.08334 -3.33333,5.16668 0,3.58333 3.95833,5.625 11.20834,5.625 6.83334,0 10.58334,-2.75 10.62501,-6.70834 0,-3.79167 -3.66667,-6.16667 -10.62501,-6.16667 z m -7.91667,6.20834 c 0,-1.33334 0.95833,-2.625 2.70833,-3.29167 1.25,0.20833 2.83334,0.29167 4.79167,0.29167 5.04167,0 7.45834,1.16666 7.50001,2.95833 0,1.91667 -2.625,3.5 -7.50001,3.5 -4.75,0 -7.41667,-1.20833 -7.5,-3.45833 z m 1.75,-17.45835 c 0,-2.45833 2.08333,-4.29167 4.83333,-4.29167 2.75001,0 4.83334,1.83334 4.83334,4.29167 0,2.41667 -2.08333,4.25 -4.83334,4.25 -2.75,0 -4.83333,-1.83333 -4.83333,-4.25 z"
         style="fill:#ffffff"
         id="path3990" />
      <path
         d="m 245.4897,251.31511 h -2.70834 c -0.66666,0 -1.04166,0.375 -1.04166,1.04167 v 2.75 c 0,0.66667 0.375,1.04167 1.04166,1.04167 h 2.70834 c 0.70833,0 1.04167,-0.375 1.04167,-1.04167 v -2.75 c 0,-0.70834 -0.375,-1.04167 -1.04167,-1.04167 z m -9.16667,30.62502 c 0,0.66667 0.375,1.04167 1.04166,1.04167 h 14.79168 c 0.66667,0 1.04167,-0.375 1.04167,-1.04167 v -1.125 c 0,-0.66667 -0.375,-1.04167 -1.04167,-1.04167 h -5.625 v -16.58334 c 0,-0.70834 -0.375,-1.04167 -1.04167,-1.04167 h -6.75001 c -0.66666,0 -1.04166,0.33333 -1.04166,1.04167 v 1.08333 c 0,0.66667 0.375,1.04167 1.04166,1.04167 h 4.25001 v 14.45834 h -5.62501 c -0.66666,0 -1.04166,0.375 -1.04166,1.04167 z"
         style="fill:#ffffff"
         id="path3992" />
      <path
         d="m 275.7814,265.35679 0.41666,-1.00001 c 0.25,-0.625 0.0833,-1.125 -0.54166,-1.375 -1.95834,-0.83333 -4.12501,-1.25 -6.25001,-1.25 -5.25,0 -10.12501,2.91667 -10.12501,10.83334 0,7.91668 4.87501,10.83335 10.12501,10.83335 2.125,0 4.29167,-0.41667 6.25001,-1.25001 0.625,-0.25 0.79166,-0.75 0.54166,-1.375 l -0.41666,-1 c -0.25,-0.625 -0.70834,-0.83333 -1.33334,-0.58333 -1.875,0.66667 -3.33333,0.95833 -5.04167,0.95833 -3.70833,0 -6.54167,-1.91666 -6.54167,-7.58334 0,-5.66667 2.83334,-7.58333 6.54167,-7.58333 1.70834,0 3.20834,0.29166 5.04167,0.95833 0.625,0.25 1.08334,0.0417 1.33334,-0.58333 z"
         style="fill:#ffffff"
         id="path3994" />
      <path
         d="m 298.28141,281.77346 v -12.08334 c 0,-5.75 -2.95834,-8.04167 -8.20834,-8.04167 -1.54167,0 -3.29167,0.16667 -5.16667,0.54167 -0.66667,0.125 -0.875,0.54166 -0.79167,1.20833 l 0.125,1.125 c 0.0833,0.625 0.58333,0.875 1.25,0.75 1.25,-0.25 2.5,-0.41666 3.79167,-0.41666 3.41667,0 5.45834,1.16666 5.45834,4.83333 v 1.66667 h -4.04167 c -5.83334,0 -8.79168,2.875 -8.79168,6.04167 0,3.16667 3.00001,6.00001 8.66668,6.00001 2.04167,0 4.29167,-0.20834 6.70834,-0.5 0.66666,-0.0833 1,-0.45834 1,-1.12501 z m -12.79168,-4.33333 c 0,-1.54167 1.75,-2.875 5.20834,-2.875 h 4.04167 v 5.45833 c -1.375,0.125 -2.70834,0.25 -3.91667,0.25 -3.58334,0 -5.33334,-1.29166 -5.33334,-2.83333 z"
         style="fill:#ffffff"
         id="path3996" />
      <path
         d="m 322.23975,281.69013 -0.33333,-1.08333 c -0.25,-0.625 -0.66667,-0.83334 -1.33334,-0.70834 -1.04166,0.25 -2.04166,0.29167 -2.70833,0.29167 -2.5,-0.0417 -3.29167,-1 -3.29167,-3.45834 v -23.95835 c 0,-0.70833 -0.375,-1.04166 -1.04167,-1.04166 h -7.16667 c -0.66667,0 -1.04167,0.33333 -1.04167,1.04166 v 1.08334 c 0,0.66666 0.375,1.04166 1.04167,1.04166 h 4.66667 v 21.83335 c 0,4.58334 2.08333,6.66668 6.83334,6.66668 0.83333,0 2.125,-0.0417 3.66667,-0.41667 0.70833,-0.16667 0.95833,-0.66667 0.70833,-1.29167 z"
         style="fill:#ffffff"
         id="path3998" />
      <path
         d="m 344.61478,253.81511 h -1.41667 c -0.625,0 -1.04167,0.45833 -1.04167,1.08333 v 21.04169 l -10.41667,-20.83335 c -0.5,-1.04167 -1.29167,-1.29167 -2.45834,-1.29167 h -0.66667 c -0.75,0 -1.125,0.375 -1.125,1.04167 v 27.04168 c 0,0.625 0.45834,1.08334 1.08334,1.08334 h 1.41667 c 0.625,0 1.04166,-0.45834 1.04166,-1.08334 v -20.87501 l 10.41668,20.45835 c 0.54166,1.04166 1.29166,1.5 2.45833,1.5 h 0.66667 c 0.75,0 1.125,-0.375 1.125,-1.04167 v -27.04169 c 0,-0.625 -0.45833,-1.08333 -1.08333,-1.08333 z"
         style="fill:#ffffff"
         id="path4000" />
      <path
         d="m 368.03147,280.77346 -0.41667,-1 c -0.25,-0.625 -0.70833,-0.83333 -1.33333,-0.58333 -1.875,0.66667 -3.50001,0.95833 -4.87501,0.95833 -3.33333,0 -6.54167,-1.79166 -6.70833,-7.04167 h 12.25 c 0.66667,0 1.04167,-0.375 1.04167,-1.04167 v -0.95833 c 0,-6.08334 -4.04167,-9.37501 -8.25,-9.37501 -4.62501,0 -8.62501,3.83334 -8.62501,10.83334 0,7.91668 4.875,10.83335 10.12501,10.83335 2.125,0 4.29167,-0.41667 6.25,-1.25001 0.625,-0.25 0.79167,-0.75 0.54167,-1.375 z m -13.04168,-10.875 c 0.29167,-3.25001 2.58334,-5.00001 4.79167,-5.00001 2.16667,0 4.62501,1.66667 4.66667,5.00001 z"
         style="fill:#ffffff"
         id="path4002" />
      <path
         d="m 390.82315,281.2318 -0.45834,-1.08334 c -0.29167,-0.625 -0.75,-0.83333 -1.375,-0.58333 -1.125,0.41667 -2.08333,0.58333 -3.125,0.58333 -2.41667,0 -4.04167,-1.16666 -4.04167,-5.66667 v -9.16667 h 6.83334 c 0.66666,0 1.04166,-0.375 1.04166,-1.04167 v -1.08333 c 0,-0.70834 -0.375,-1.04167 -1.04166,-1.04167 h -6.83334 v -5.625 c 0,-0.66667 -0.375,-1.04167 -1.04167,-1.04167 h -1.45833 c -0.66667,0 -1.04167,0.375 -1.04167,1.04167 v 5.625 h -3.16667 c -0.66667,0 -1.04167,0.33333 -1.04167,1.04167 v 1.08333 c 0,0.66667 0.375,1.04167 1.04167,1.04167 h 3.16667 v 9.16667 c 0,6.70834 3.625,8.91668 7.58334,8.91668 1.45833,0 3,-0.33334 4.375,-0.83334 0.66667,-0.20833 0.83334,-0.70833 0.58334,-1.33333 z"
         style="fill:#ffffff"
         id="path4004" />
      <path
         d="m 415.36482,282.14846 0.83334,-18.91668 c 0,-0.625 -0.45834,-1.08333 -1.08334,-1.08333 h -1.41666 c -0.625,0 -1.00001,0.45833 -1.04167,1.08333 l -0.75,13.08335 -4.62501,-9.25001 c -0.25,-0.54167 -0.625,-0.75 -1.20833,-0.75 h -1.16667 c -0.58333,0 -0.95833,0.20833 -1.20833,0.75 l -4.62501,9.25001 -0.75,-13.08335 c -0.0417,-0.625 -0.41666,-1.08333 -1.04166,-1.08333 h -1.41667 c -0.625,0 -1.125,0.45833 -1.08334,1.08333 l 0.83334,18.91668 c 0.0417,0.66667 0.375,1.04167 1.125,1.04167 h 0.66667 c 1.16666,0 1.95833,-0.45833 2.45833,-1.5 l 5.62501,-11.25001 5.625,11.25001 c 0.5,1.04167 1.29167,1.5 2.45834,1.5 h 0.66666 c 0.75,0 1.125,-0.375 1.125,-1.04167 z"
         style="fill:#ffffff"
         id="path4006" />
      <path
         d="m 428.57319,261.64845 c -4.58334,0 -8.58334,3.41667 -8.58334,10.91667 0,7.50001 4,10.91668 8.58334,10.91668 4.58334,0 8.29167,-3.41667 8.29167,-10.91668 0,-7.5 -3.70833,-10.91667 -8.29167,-10.91667 z m -5.04167,10.91667 c 0,-4.91667 2,-7.70833 4.91667,-7.70833 2.91667,0 4.875,2.79166 4.875,7.70833 0,4.91667 -1.95833,7.70834 -4.875,7.70834 -2.91667,0 -4.91667,-2.79167 -4.91667,-7.70834 z"
         style="fill:#ffffff"
         id="path4008" />
      <path
         d="m 442.94819,263.35678 v 18.58335 c 0,0.66667 0.375,1.04167 1.04167,1.04167 h 1.45834 c 0.70833,0 1.04166,-0.375 1.04166,-1.04167 v -16.87501 c 1.875,-0.125 3.50001,-0.16667 4.50001,-0.16667 3.83333,0 5.29167,0.95834 5.29167,3.58334 0,0.66667 0.375,1.04167 1.04166,1.04167 h 1.45834 c 0.70833,0 1.04167,-0.33334 1.04167,-1.04167 0,-4.95834 -2.37501,-6.75001 -8.83334,-6.75001 -1.375,0 -4.04167,0.0417 -7.08334,0.5 -0.625,0.125 -0.95834,0.5 -0.95834,1.125 z"
         style="fill:#ffffff"
         id="path4010" />
      <path
         d="m 483.48988,281.69013 -8,-8 c -0.79167,-0.79167 -1.16667,-1.04167 -2.375,-1.54167 1.20833,-0.5 1.58333,-0.75 2.375,-1.54167 l 7.16667,-7.16667 c 0.66667,-0.66667 0.41667,-1.29167 -0.54167,-1.29167 h -2.41667 c -0.54166,0 -0.91666,0.16667 -1.29166,0.54167 l -7.50001,7.5 c -0.66667,0.66667 -1.04167,0.91667 -1.45833,0.91667 v -18.33335 c 0,-0.66666 -0.375,-1.04166 -1.04167,-1.04166 h -1.45834 c -0.66666,0 -1.04166,0.375 -1.04166,1.04166 v 29.16669 c 0,0.66667 0.375,1.04167 1.04166,1.04167 h 1.45834 c 0.66667,0 1.04167,-0.375 1.04167,-1.04167 v -8.79167 c 0.41666,0 0.79166,0.20833 1.45833,0.91667 l 8.33334,8.375 c 0.375,0.375 0.75,0.54167 1.29167,0.54167 h 2.41667 c 0.95833,0 1.20833,-0.625 0.54166,-1.29167 z"
         style="fill:#ffffff"
         id="path4012" />
      <path
         d="m 503.19822,264.52345 0.29167,-1.08333 c 0.16667,-0.66667 -0.125,-1.125 -0.79167,-1.25 -2,-0.375 -3.83333,-0.45834 -4.91667,-0.45834 -5.20833,0 -8.04167,2.54167 -8.04167,5.79167 0,3.12501 2.625,5.75001 7.37501,6.20834 3.16667,0.29167 4.25,1.79167 4.20833,3.25 -0.0417,1.83334 -1.83333,3.20834 -5.20833,3.20834 -0.95834,0 -2.83334,-0.0417 -5.00001,-0.41667 -0.66666,-0.0833 -1.08333,0.16667 -1.20833,0.83334 l -0.25,1.08333 c -0.16667,0.66667 0.125,1.125 0.83333,1.25 2.33334,0.375 4.29167,0.45834 5.62501,0.45834 5.66667,0 8.75,-2.70834 8.75,-6.50001 0,-3.125 -2.16667,-5.75 -7.33334,-6.375 -2.75,-0.33334 -4.25,-1.58334 -4.25,-3.00001 0,-1.625 2,-2.54166 4.5,-2.625 1.12501,-0.0417 2.37501,0.0833 4.16667,0.375 0.66667,0.125 1.08334,-0.125 1.25,-0.75 z"
         style="fill:#ffffff"
         id="path4014" />
      <path
         d="m 514.28156,253.81511 h -3.33334 c -0.70833,0 -1.04166,0.375 -1.04166,1.04167 v 1.08333 c 0,0.66667 0.33333,1.04167 1.04166,1.04167 h 1.58334 v 24.95835 c 0,0.66667 0.375,1.04167 1.04167,1.04167 h 2.33333 c 10.45834,0 13.91668,-4.25 13.91668,-13.75001 v -1.66667 c 0,-10.87501 -5.16667,-13.75001 -15.54168,-13.75001 z m 1.79167,25.95835 v -22.75001 c 7.5,0 10.20834,3.625 10.20834,10.54167 v 1.66667 c 0,7.625 -3,10.54167 -10.20834,10.54167 z"
         style="fill:#ffffff"
         id="path4016" />
      <path
         d="m 551.53161,262.14845 h -1.5 c -0.625,0 -1,0.29167 -1.16667,0.875 l -4.33333,17.33335 h -1.29167 c -0.875,0 -1.45834,-0.45834 -1.625,-1.25 l -4.04167,-16.08335 c -0.125,-0.58333 -0.5,-0.875 -1.125,-0.875 h -1.5 c -0.75001,0 -1.08334,0.41667 -0.91667,1.16667 l 4.08333,16.33334 c 0.625,2.41667 2.41667,3.75001 5.12501,3.75001 h 0.54167 c -1.16667,4.75 -2.83334,6.70833 -5.70834,6.70833 -1,0 -2.70834,-0.25 -4.00001,-0.70833 -0.625,-0.25 -1.125,0 -1.33333,0.625 l -0.375,1.04167 c -0.20833,0.625 0,1.08333 0.625,1.33333 1.875,0.66667 3.58334,1 5.08334,1 4.83333,0 7.45834,-2.83333 9.16667,-9.58334 l 5.16667,-20.50001 c 0.16667,-0.70834 -0.16667,-1.16667 -0.875,-1.16667 z"
         style="fill:#ffffff"
         id="path4018" />
      <path
         d="m 557.73994,263.35678 v 18.58335 c 0,0.66667 0.375,1.04167 1.04167,1.04167 h 1.45833 c 0.70834,0 1.04167,-0.375 1.04167,-1.04167 v -16.87501 c 1.875,-0.125 3.5,-0.16667 4.5,-0.16667 3.79167,0 5.29168,1.33334 5.29168,5.25001 v 11.79167 c 0,0.66667 0.375,1.04167 1.04166,1.04167 h 1.45834 c 0.70833,0 1.04166,-0.375 1.04166,-1.04167 v -11.79167 c 0,-6.08334 -2.66666,-8.41668 -8.83334,-8.41668 -1.375,0 -4.04167,0.0417 -7.08333,0.5 -0.625,0.125 -0.95834,0.5 -0.95834,1.125 z"
         style="fill:#ffffff"
         id="path4020" />
      <path
         d="m 596.73996,281.77346 v -12.08334 c 0,-5.75 -2.95833,-8.04167 -8.20834,-8.04167 -1.54166,0 -3.29166,0.16667 -5.16667,0.54167 -0.66666,0.125 -0.875,0.54166 -0.79166,1.20833 l 0.125,1.125 c 0.0833,0.625 0.58333,0.875 1.25,0.75 1.25,-0.25 2.5,-0.41666 3.79167,-0.41666 3.41667,0 5.45833,1.16666 5.45833,4.83333 v 1.66667 h -4.04166 c -5.83334,0 -8.79168,2.875 -8.79168,6.04167 0,3.16667 3,6.00001 8.66668,6.00001 2.04166,0 4.29166,-0.20834 6.70833,-0.5 0.66667,-0.0833 1,-0.45834 1,-1.12501 z m -12.79167,-4.33333 c 0,-1.54167 1.75,-2.875 5.20834,-2.875 h 4.04166 v 5.45833 c -1.375,0.125 -2.70833,0.25 -3.91666,0.25 -3.58334,0 -5.33334,-1.29166 -5.33334,-2.83333 z"
         style="fill:#ffffff"
         id="path4022" />
      <path
         d="m 616.28167,261.81512 c -1.20834,0 -2.70834,0.20833 -4.33334,1 -0.95833,-0.70834 -2.29167,-1 -3.95833,-1 -1.375,0 -2.95834,0.20833 -4.79167,0.54166 -0.625,0.125 -0.95834,0.5 -0.95834,1.125 v 18.45835 c 0,0.66667 0.375,1.04167 1.04167,1.04167 h 1.45833 c 0.70834,0 1.04167,-0.375 1.04167,-1.04167 v -16.87501 c 0.75,-0.0833 1.25,-0.0833 1.41667,-0.0833 2.25,0 3.125,0.875 3.125,3.41666 v 13.54168 c 0,0.66667 0.375,1.04167 1.04167,1.04167 h 1.45833 c 0.70834,0 1.04167,-0.375 1.04167,-1.04167 v -13.54168 c 0,-1.08333 -0.0417,-2.16666 -0.41667,-3.29166 1,-0.125 1.625,-0.125 1.83334,-0.125 2.25,0 3.125,0.875 3.125,3.41666 v 13.54168 c 0,0.66667 0.375,1.04167 1.04167,1.04167 h 1.45833 c 0.66667,0 1.04167,-0.375 1.04167,-1.04167 v -13.62501 c 0,-4.79167 -1.875,-6.5 -5.66667,-6.5 z"
         style="fill:#ffffff"
         id="path4024" />
      <path
         d="m 635.78165,251.31511 h -2.70834 c -0.66667,0 -1.04167,0.375 -1.04167,1.04167 v 2.75 c 0,0.66667 0.375,1.04167 1.04167,1.04167 h 2.70834 c 0.70833,0 1.04166,-0.375 1.04166,-1.04167 v -2.75 c 0,-0.70834 -0.375,-1.04167 -1.04166,-1.04167 z m -9.16668,30.62502 c 0,0.66667 0.375,1.04167 1.04167,1.04167 h 14.79168 c 0.66666,0 1.04167,-0.375 1.04167,-1.04167 v -1.125 c 0,-0.66667 -0.37501,-1.04167 -1.04167,-1.04167 h -5.62501 v -16.58334 c 0,-0.70834 -0.375,-1.04167 -1.04166,-1.04167 h -6.75001 c -0.66667,0 -1.04167,0.33333 -1.04167,1.04167 v 1.08333 c 0,0.66667 0.375,1.04167 1.04167,1.04167 h 4.25 v 14.45834 h -5.625 c -0.66667,0 -1.04167,0.375 -1.04167,1.04167 z"
         style="fill:#ffffff"
         id="path4026" />
      <path
         d="m 666.07336,265.35679 0.41667,-1.00001 c 0.25,-0.625 0.0833,-1.125 -0.54167,-1.375 -1.95834,-0.83333 -4.125,-1.25 -6.25001,-1.25 -5.25,0 -10.125,2.91667 -10.125,10.83334 0,7.91668 4.875,10.83335 10.125,10.83335 2.12501,0 4.29167,-0.41667 6.25001,-1.25001 0.625,-0.25 0.79167,-0.75 0.54167,-1.375 l -0.41667,-1 c -0.25,-0.625 -0.70834,-0.83333 -1.33334,-0.58333 -1.875,0.66667 -3.33333,0.95833 -5.04167,0.95833 -3.70833,0 -6.54167,-1.91666 -6.54167,-7.58334 0,-5.66667 2.83334,-7.58333 6.54167,-7.58333 1.70834,0 3.20834,0.29166 5.04167,0.95833 0.625,0.25 1.08334,0.0417 1.33334,-0.58333 z"
         style="fill:#ffffff"
         id="path4028" />
      <path
         d="m 686.86506,264.52345 0.29167,-1.08333 c 0.16667,-0.66667 -0.125,-1.125 -0.79167,-1.25 -2,-0.375 -3.83333,-0.45834 -4.91667,-0.45834 -5.20833,0 -8.04167,2.54167 -8.04167,5.79167 0,3.12501 2.625,5.75001 7.37501,6.20834 3.16667,0.29167 4.25,1.79167 4.20833,3.25 -0.0417,1.83334 -1.83333,3.20834 -5.20833,3.20834 -0.95834,0 -2.83334,-0.0417 -5.00001,-0.41667 -0.66666,-0.0833 -1.08333,0.16667 -1.20833,0.83334 l -0.25,1.08333 c -0.16667,0.66667 0.125,1.125 0.83333,1.25 2.33334,0.375 4.29167,0.45834 5.62501,0.45834 5.66667,0 8.75,-2.70834 8.75,-6.50001 0,-3.125 -2.16667,-5.75 -7.33334,-6.375 -2.75,-0.33334 -4.25,-1.58334 -4.25,-3.00001 0,-1.625 2,-2.54166 4.5,-2.625 1.125,-0.0417 2.37501,0.0833 4.16667,0.375 0.66667,0.125 1.08334,-0.125 1.25,-0.75 z"
         style="fill:#ffffff"
         id="path4030" />
    </g>
  </g>
</svg>
